<?xml version="1.0" encoding="utf-8"?>
<!-- Generator: Adobe Illustrator 16.0.0, SVG Export Plug-In . SVG Version: 6.00 Build 0)  -->
<!DOCTYPE svg PUBLIC "-//W3C//DTD SVG 1.1//EN" "http://www.w3.org/Graphics/SVG/1.1/DTD/svg11.dtd">
<svg version="1.1" id="Layer_1" xmlns="http://www.w3.org/2000/svg" xmlns:xlink="http://www.w3.org/1999/xlink" x="0px" y="0px"
	 width="1400px" height="980px" viewBox="0 0 1400 980" enable-background="new 0 0 1400 980" xml:space="preserve">
<g>
	<g>
		<g>
			<rect fill="#FFFFFF" width="1400" height="980"/>
		</g>
	</g>
	<g>
		<path fill="#6D6E71" d="M431.8,483.6V439v-15.1c0-16.3-13.2-29.6-29.6-29.6H147c-16.3,0-29.6,13.3-29.6,29.6v59.8h37.9h238.7
			H431.8z M302.3,452.5c-7.5,0-13.6-6.1-13.6-13.6c0-7.5,6.1-13.6,13.6-13.6c7.5,0,13.6,6.1,13.6,13.6
			C315.8,446.4,309.8,452.5,302.3,452.5z M343.5,452.5c-7.5,0-13.6-6.1-13.6-13.6c0-7.5,6.1-13.6,13.6-13.6S357,431.5,357,439
			C357,446.4,351,452.5,343.5,452.5z M371.1,439c0-7.5,6.1-13.6,13.6-13.6c7.5,0,13.6,6.1,13.6,13.6c0,7.5-6.1,13.6-13.6,13.6
			C377.1,452.5,371.1,446.4,371.1,439z"/>
		<path d="M431.8,484.9H117.4c-0.7,0-1.2-0.6-1.2-1.2v-59.8c0-17,13.8-30.8,30.8-30.8h255.2c17,0,30.8,13.8,30.8,30.8v59.8
			C433.1,484.3,432.5,484.9,431.8,484.9z M118.6,482.4h311.9v-58.6c0-15.6-12.7-28.4-28.4-28.4H147c-15.6,0-28.4,12.7-28.4,28.4
			V482.4z M384.6,453.7c-8.2,0-14.8-6.6-14.8-14.8c0-8.2,6.6-14.8,14.8-14.8c8.2,0,14.8,6.6,14.8,14.8
			C399.4,447.1,392.8,453.7,384.6,453.7z M384.6,426.6c-6.8,0-12.3,5.5-12.3,12.3s5.5,12.3,12.3,12.3S397,445.8,397,439
			S391.4,426.6,384.6,426.6z M343.5,453.7c-8.2,0-14.8-6.6-14.8-14.8c0-8.2,6.6-14.8,14.8-14.8c8.2,0,14.8,6.6,14.8,14.8
			C358.3,447.1,351.6,453.7,343.5,453.7z M343.5,426.6c-6.8,0-12.3,5.5-12.3,12.3s5.5,12.3,12.3,12.3s12.3-5.5,12.3-12.3
			S350.3,426.6,343.5,426.6z M302.3,453.7c-8.2,0-14.8-6.6-14.8-14.8c0-8.2,6.6-14.8,14.8-14.8c8.2,0,14.8,6.6,14.8,14.8
			C317.1,447.1,310.4,453.7,302.3,453.7z M302.3,426.6c-6.8,0-12.3,5.5-12.3,12.3s5.5,12.3,12.3,12.3c6.8,0,12.3-5.5,12.3-12.3
			S309.1,426.6,302.3,426.6z"/>
	</g>
	<g>
		<circle fill="#B2DE7F" cx="302.3" cy="439" r="13.6"/>
		<path d="M302.3,453.7c-8.2,0-14.8-6.6-14.8-14.8c0-8.2,6.6-14.8,14.8-14.8c8.2,0,14.8,6.6,14.8,14.8
			C317.1,447.1,310.4,453.7,302.3,453.7z M302.3,426.6c-6.8,0-12.3,5.5-12.3,12.3s5.5,12.3,12.3,12.3c6.8,0,12.3-5.5,12.3-12.3
			S309.1,426.6,302.3,426.6z"/>
	</g>
	<g>
		<circle fill="#FF9D9A" cx="343.5" cy="439" r="13.6"/>
		<path d="M343.5,453.7c-8.2,0-14.8-6.6-14.8-14.8c0-8.2,6.6-14.8,14.8-14.8c8.2,0,14.8,6.6,14.8,14.8
			C358.3,447.1,351.6,453.7,343.5,453.7z M343.5,426.6c-6.8,0-12.3,5.5-12.3,12.3s5.5,12.3,12.3,12.3s12.3-5.5,12.3-12.3
			S350.3,426.6,343.5,426.6z"/>
	</g>
	<g>
		<circle fill="#FF9D9A" cx="384.6" cy="439" r="13.6"/>
		<path d="M384.6,453.7c-8.2,0-14.8-6.6-14.8-14.8c0-8.2,6.6-14.8,14.8-14.8c8.2,0,14.8,6.6,14.8,14.8
			C399.4,447.1,392.8,453.7,384.6,453.7z M384.6,426.6c-6.8,0-12.3,5.5-12.3,12.3s5.5,12.3,12.3,12.3S397,445.8,397,439
			S391.4,426.6,384.6,426.6z"/>
	</g>
	<g>
		<path fill="#6D6E71" d="M431.8,597.1v-44.7v-15.1c0-16.3-13.2-29.6-29.6-29.6h-8.3H155.3H147c-16.3,0-29.6,13.2-29.6,29.6v59.8
			h37.9h238.7H431.8z M302.3,566c-7.5,0-13.6-6.1-13.6-13.6s6.1-13.6,13.6-13.6c7.5,0,13.6,6.1,13.6,13.6S309.8,566,302.3,566z
			 M343.5,566c-7.5,0-13.6-6.1-13.6-13.6s6.1-13.6,13.6-13.6s13.6,6.1,13.6,13.6S351,566,343.5,566z M371.1,552.4
			c0-7.5,6.1-13.6,13.6-13.6c7.5,0,13.6,6.1,13.6,13.6s-6.1,13.6-13.6,13.6C377.1,566,371.1,559.9,371.1,552.4z"/>
		<path d="M431.8,598.3H117.4c-0.7,0-1.2-0.6-1.2-1.2v-59.8c0-17,13.8-30.8,30.8-30.8h255.2c17,0,30.8,13.8,30.8,30.8v59.8
			C433.1,597.8,432.5,598.3,431.8,598.3z M118.6,595.9h311.9v-58.6c0-15.6-12.7-28.4-28.4-28.4H147c-15.6,0-28.4,12.7-28.4,28.4
			V595.9z M384.6,567.2c-8.2,0-14.8-6.6-14.8-14.8s6.6-14.8,14.8-14.8c8.2,0,14.8,6.6,14.8,14.8S392.8,567.2,384.6,567.2z
			 M384.6,540.1c-6.8,0-12.3,5.5-12.3,12.3c0,6.8,5.5,12.3,12.3,12.3s12.3-5.5,12.3-12.3C397,545.6,391.4,540.1,384.6,540.1z
			 M343.5,567.2c-8.2,0-14.8-6.6-14.8-14.8s6.6-14.8,14.8-14.8c8.2,0,14.8,6.6,14.8,14.8S351.6,567.2,343.5,567.2z M343.5,540.1
			c-6.8,0-12.3,5.5-12.3,12.3c0,6.8,5.5,12.3,12.3,12.3s12.3-5.5,12.3-12.3C355.8,545.6,350.3,540.1,343.5,540.1z M302.3,567.2
			c-8.2,0-14.8-6.6-14.8-14.8s6.6-14.8,14.8-14.8c8.2,0,14.8,6.6,14.8,14.8S310.4,567.2,302.3,567.2z M302.3,540.1
			c-6.8,0-12.3,5.5-12.3,12.3c0,6.8,5.5,12.3,12.3,12.3c6.8,0,12.3-5.5,12.3-12.3C314.6,545.6,309.1,540.1,302.3,540.1z"/>
	</g>
	<g>
		<circle fill="#B2DE7F" cx="302.3" cy="552.4" r="13.6"/>
		<path d="M302.3,567.2c-8.2,0-14.8-6.6-14.8-14.8s6.6-14.8,14.8-14.8c8.2,0,14.8,6.6,14.8,14.8S310.4,567.2,302.3,567.2z
			 M302.3,540.1c-6.8,0-12.3,5.5-12.3,12.3c0,6.8,5.5,12.3,12.3,12.3c6.8,0,12.3-5.5,12.3-12.3C314.6,545.6,309.1,540.1,302.3,540.1
			z"/>
	</g>
	<g>
		<circle fill="#B2DE7F" cx="343.5" cy="552.4" r="13.6"/>
		<path d="M343.5,567.2c-8.2,0-14.8-6.6-14.8-14.8s6.6-14.8,14.8-14.8c8.2,0,14.8,6.6,14.8,14.8S351.6,567.2,343.5,567.2z
			 M343.5,540.1c-6.8,0-12.3,5.5-12.3,12.3c0,6.8,5.5,12.3,12.3,12.3s12.3-5.5,12.3-12.3C355.8,545.6,350.3,540.1,343.5,540.1z"/>
	</g>
	<g>
		<circle fill="#B2DE7F" cx="384.6" cy="552.4" r="13.6"/>
		<path d="M384.6,567.2c-8.2,0-14.8-6.6-14.8-14.8s6.6-14.8,14.8-14.8c8.2,0,14.8,6.6,14.8,14.8S392.8,567.2,384.6,567.2z
			 M384.6,540.1c-6.8,0-12.3,5.5-12.3,12.3c0,6.8,5.5,12.3,12.3,12.3s12.3-5.5,12.3-12.3C397,545.6,391.4,540.1,384.6,540.1z"/>
	</g>
	<g>
		<path fill="#6D6E71" d="M431.8,710.5v-44.7v-15.1c0-16.3-13.2-29.6-29.6-29.6h-8.3H155.3H147c-16.3,0-29.6,13.3-29.6,29.6v59.8
			h37.9h238.7H431.8z M302.3,679.4c-7.5,0-13.6-6.1-13.6-13.6c0-7.5,6.1-13.6,13.6-13.6c7.5,0,13.6,6.1,13.6,13.6
			C315.8,673.3,309.8,679.4,302.3,679.4z M343.5,679.4c-7.5,0-13.6-6.1-13.6-13.6c0-7.5,6.1-13.6,13.6-13.6s13.6,6.1,13.6,13.6
			C357,673.3,351,679.4,343.5,679.4z M371.1,665.8c0-7.5,6.1-13.6,13.6-13.6c7.5,0,13.6,6.1,13.6,13.6c0,7.5-6.1,13.6-13.6,13.6
			C377.1,679.4,371.1,673.3,371.1,665.8z"/>
		<path d="M431.8,711.8H117.4c-0.7,0-1.2-0.6-1.2-1.2v-59.8c0-17,13.8-30.8,30.8-30.8h255.2c17,0,30.8,13.8,30.8,30.8v59.8
			C433.1,711.2,432.5,711.8,431.8,711.8z M118.6,709.3h311.9v-58.6c0-15.6-12.7-28.4-28.4-28.4H147c-15.6,0-28.4,12.7-28.4,28.4
			V709.3z M384.6,680.6c-8.2,0-14.8-6.6-14.8-14.8c0-8.2,6.6-14.8,14.8-14.8c8.2,0,14.8,6.6,14.8,14.8
			C399.4,674,392.8,680.6,384.6,680.6z M384.6,653.5c-6.8,0-12.3,5.5-12.3,12.3c0,6.8,5.5,12.3,12.3,12.3s12.3-5.5,12.3-12.3
			C397,659,391.4,653.5,384.6,653.5z M343.5,680.6c-8.2,0-14.8-6.6-14.8-14.8c0-8.2,6.6-14.8,14.8-14.8c8.2,0,14.8,6.6,14.8,14.8
			C358.3,674,351.6,680.6,343.5,680.6z M343.5,653.5c-6.8,0-12.3,5.5-12.3,12.3c0,6.8,5.5,12.3,12.3,12.3s12.3-5.5,12.3-12.3
			C355.8,659,350.3,653.5,343.5,653.5z M302.3,680.6c-8.2,0-14.8-6.6-14.8-14.8c0-8.2,6.6-14.8,14.8-14.8c8.2,0,14.8,6.6,14.8,14.8
			C317.1,674,310.4,680.6,302.3,680.6z M302.3,653.5c-6.8,0-12.3,5.5-12.3,12.3c0,6.8,5.5,12.3,12.3,12.3c6.8,0,12.3-5.5,12.3-12.3
			C314.6,659,309.1,653.5,302.3,653.5z"/>
	</g>
	<g>
		<circle fill="#F4FFA0" cx="302.3" cy="665.8" r="13.6"/>
		<path d="M302.3,680.6c-8.2,0-14.8-6.6-14.8-14.8c0-8.2,6.6-14.8,14.8-14.8c8.2,0,14.8,6.6,14.8,14.8
			C317.1,674,310.4,680.6,302.3,680.6z M302.3,653.5c-6.8,0-12.3,5.5-12.3,12.3c0,6.8,5.5,12.3,12.3,12.3c6.8,0,12.3-5.5,12.3-12.3
			C314.6,659,309.1,653.5,302.3,653.5z"/>
	</g>
	<g>
		<circle fill="#FF9D9A" cx="343.5" cy="665.8" r="13.6"/>
		<path d="M343.5,680.6c-8.2,0-14.8-6.6-14.8-14.8c0-8.2,6.6-14.8,14.8-14.8c8.2,0,14.8,6.6,14.8,14.8
			C358.3,674,351.6,680.6,343.5,680.6z M343.5,653.5c-6.8,0-12.3,5.5-12.3,12.3c0,6.8,5.5,12.3,12.3,12.3s12.3-5.5,12.3-12.3
			C355.8,659,350.3,653.5,343.5,653.5z"/>
	</g>
	<g>
		<circle fill="#FF9D9A" cx="384.6" cy="665.8" r="13.6"/>
		<path d="M384.6,680.6c-8.2,0-14.8-6.6-14.8-14.8c0-8.2,6.6-14.8,14.8-14.8c8.2,0,14.8,6.6,14.8,14.8
			C399.4,674,392.8,680.6,384.6,680.6z M384.6,653.5c-6.8,0-12.3,5.5-12.3,12.3c0,6.8,5.5,12.3,12.3,12.3s12.3-5.5,12.3-12.3
			C397,659,391.4,653.5,384.6,653.5z"/>
	</g>
	<g>
		<path fill="#6D6E71" d="M402.2,734.6h-8.3H155.3H147c-16.3,0-29.6,13.3-29.6,29.6V824h314.4v-44.7v-15.1
			C431.8,747.8,418.6,734.6,402.2,734.6z M302.3,792.8c-7.5,0-13.6-6.1-13.6-13.6s6.1-13.6,13.6-13.6c7.5,0,13.6,6.1,13.6,13.6
			S309.8,792.8,302.3,792.8z M343.5,792.8c-7.5,0-13.6-6.1-13.6-13.6s6.1-13.6,13.6-13.6s13.6,6.1,13.6,13.6S351,792.8,343.5,792.8z
			 M384.6,792.8c-7.5,0-13.6-6.1-13.6-13.6s6.1-13.6,13.6-13.6c7.5,0,13.6,6.1,13.6,13.6S392.1,792.8,384.6,792.8z"/>
		<path d="M431.8,825.2H117.4c-0.7,0-1.2-0.6-1.2-1.2v-59.8c0-17,13.8-30.8,30.8-30.8h255.2c17,0,30.8,13.8,30.8,30.8V824
			C433.1,824.6,432.5,825.2,431.8,825.2z M118.6,822.7h311.9v-58.6c0-15.6-12.7-28.4-28.4-28.4H147c-15.6,0-28.4,12.7-28.4,28.4
			V822.7z M384.6,794.1c-8.2,0-14.8-6.6-14.8-14.8s6.6-14.8,14.8-14.8c8.2,0,14.8,6.6,14.8,14.8S392.8,794.1,384.6,794.1z
			 M384.6,766.9c-6.8,0-12.3,5.5-12.3,12.3s5.5,12.3,12.3,12.3s12.3-5.5,12.3-12.3S391.4,766.9,384.6,766.9z M343.5,794.1
			c-8.2,0-14.8-6.6-14.8-14.8s6.6-14.8,14.8-14.8c8.2,0,14.8,6.6,14.8,14.8S351.6,794.1,343.5,794.1z M343.5,766.9
			c-6.8,0-12.3,5.5-12.3,12.3s5.5,12.3,12.3,12.3s12.3-5.5,12.3-12.3S350.3,766.9,343.5,766.9z M302.3,794.1
			c-8.2,0-14.8-6.6-14.8-14.8s6.6-14.8,14.8-14.8c8.2,0,14.8,6.6,14.8,14.8S310.4,794.1,302.3,794.1z M302.3,766.9
			c-6.8,0-12.3,5.5-12.3,12.3s5.5,12.3,12.3,12.3c6.8,0,12.3-5.5,12.3-12.3S309.1,766.9,302.3,766.9z"/>
	</g>
	<g>
		<circle fill="#B2DE7F" cx="302.3" cy="779.3" r="13.6"/>
		<path d="M302.3,794.1c-8.2,0-14.8-6.6-14.8-14.8s6.6-14.8,14.8-14.8c8.2,0,14.8,6.6,14.8,14.8S310.4,794.1,302.3,794.1z
			 M302.3,766.9c-6.8,0-12.3,5.5-12.3,12.3s5.5,12.3,12.3,12.3c6.8,0,12.3-5.5,12.3-12.3S309.1,766.9,302.3,766.9z"/>
	</g>
	<g>
		<circle fill="#F4FFA0" cx="343.5" cy="779.3" r="13.6"/>
		<path d="M343.5,794.1c-8.2,0-14.8-6.6-14.8-14.8s6.6-14.8,14.8-14.8c8.2,0,14.8,6.6,14.8,14.8S351.6,794.1,343.5,794.1z
			 M343.5,766.9c-6.8,0-12.3,5.5-12.3,12.3s5.5,12.3,12.3,12.3s12.3-5.5,12.3-12.3S350.3,766.9,343.5,766.9z"/>
	</g>
	<g>
		<circle fill="#FF9D9A" cx="384.6" cy="779.3" r="13.6"/>
		<path d="M384.6,794.1c-8.2,0-14.8-6.6-14.8-14.8s6.6-14.8,14.8-14.8c8.2,0,14.8,6.6,14.8,14.8S392.8,794.1,384.6,794.1z
			 M384.6,766.9c-6.8,0-12.3,5.5-12.3,12.3s5.5,12.3,12.3,12.3s12.3-5.5,12.3-12.3S391.4,766.9,384.6,766.9z"/>
	</g>
	<g>
		<rect x="155.3" y="710.5" fill="#414042" width="238.7" height="24"/>
		<path d="M393.9,735.8H155.3c-0.7,0-1.2-0.6-1.2-1.2v-24c0-0.7,0.6-1.2,1.2-1.2h238.7c0.7,0,1.2,0.6,1.2,1.2v24
			C395.2,735.2,394.6,735.8,393.9,735.8z M156.5,733.3h236.2v-21.6H156.5V733.3z"/>
	</g>
	<g>
		<rect x="155.3" y="597.1" fill="#414042" width="238.7" height="24"/>
		<path d="M393.9,622.4H155.3c-0.7,0-1.2-0.6-1.2-1.2v-24c0-0.7,0.6-1.2,1.2-1.2h238.7c0.7,0,1.2,0.6,1.2,1.2v24
			C395.2,621.8,394.6,622.4,393.9,622.4z M156.5,619.9h236.2v-21.6H156.5V619.9z"/>
	</g>
	<g>
		<rect x="155.3" y="483.6" fill="#414042" width="238.7" height="24"/>
		<path d="M393.9,508.9H155.3c-0.7,0-1.2-0.6-1.2-1.2v-24c0-0.7,0.6-1.2,1.2-1.2h238.7c0.7,0,1.2,0.6,1.2,1.2v24
			C395.2,508.4,394.6,508.9,393.9,508.9z M156.5,506.5h236.2v-21.6H156.5V506.5z"/>
	</g>
	<g>
		<path d="M525.3,593.3c-0.2,0-0.3,0-0.5-0.1c-0.4-0.2-0.7-0.6-0.7-1.1v-38.4h-92.2c-0.7,0-1.2-0.6-1.2-1.2s0.6-1.2,1.2-1.2h93.5
			c0.7,0,1.2,0.6,1.2,1.2v37L635,495.7L526.5,402v37c0,0.7-0.6,1.2-1.2,1.2h-93.5c-0.7,0-1.2-0.6-1.2-1.2c0-0.7,0.6-1.2,1.2-1.2
			h92.2v-38.4c0-0.5,0.3-0.9,0.7-1.1c0.4-0.2,1-0.1,1.3,0.2l111.6,96.4c0.3,0.2,0.4,0.6,0.4,0.9s-0.2,0.7-0.4,0.9L526.1,593
			C525.9,593.2,525.6,593.3,525.3,593.3z"/>
	</g>
	<g>
		<path d="M636.9,820.1c-0.2,0-0.3,0-0.5-0.1c-0.4-0.2-0.7-0.6-0.7-1.1v-38.4H431.8c-0.7,0-1.2-0.6-1.2-1.2s0.6-1.2,1.2-1.2h205.1
			c0.7,0,1.2,0.6,1.2,1.2v37l108.5-93.7l-108.5-93.7v37c0,0.7-0.6,1.2-1.2,1.2H431.8c-0.7,0-1.2-0.6-1.2-1.2c0-0.7,0.6-1.2,1.2-1.2
			h203.8v-38.4c0-0.5,0.3-0.9,0.7-1.1c0.4-0.2,1-0.1,1.3,0.2l111.6,96.4c0.3,0.2,0.4,0.6,0.4,0.9c0,0.4-0.2,0.7-0.4,0.9l-111.6,96.4
			C637.5,820,637.2,820.1,636.9,820.1z"/>
	</g>
	<g>
		<path d="M534.4,758.8H431.1c-0.7,0-1.2-0.6-1.2-1.2s0.6-1.2,1.2-1.2h103.3c0.7,0,1.2,0.6,1.2,1.2S535,758.8,534.4,758.8z"/>
	</g>
	<g>
		<path d="M495.9,531.3h-64.8c-0.7,0-1.2-0.6-1.2-1.2s0.6-1.2,1.2-1.2h64.8c0.7,0,1.2,0.6,1.2,1.2S496.5,531.3,495.9,531.3z"/>
	</g>
	<g>
		<path d="M598.5,758.8h-38.6c-0.7,0-1.2-0.6-1.2-1.2s0.6-1.2,1.2-1.2h38.6c0.7,0,1.2,0.6,1.2,1.2S599.1,758.8,598.5,758.8z"/>
	</g>
	<g>
		<path d="M331.6,395.5c-0.7,0-1.2-0.6-1.2-1.2v-68.7c0-0.7,0.6-1.2,1.2-1.2h66.6c0.7,0,1.2,0.6,1.2,1.2v37l108.5-93.7l-108.5-93.7
			v37c0,0.7-0.6,1.2-1.2,1.2H218.9v180.9c0,0.7-0.6,1.2-1.2,1.2c-0.7,0-1.2-0.6-1.2-1.2V212.1c0-0.7,0.6-1.2,1.2-1.2H397v-38.4
			c0-0.5,0.3-0.9,0.7-1.1c0.4-0.2,1-0.1,1.3,0.2l111.6,96.4c0.3,0.2,0.4,0.6,0.4,0.9s-0.2,0.7-0.4,0.9L399,366.1
			c-0.4,0.3-0.9,0.4-1.3,0.2c-0.4-0.2-0.7-0.6-0.7-1.1v-38.4h-64.2v67.5C332.8,394.9,332.3,395.5,331.6,395.5z"/>
	</g>
	<g>
		<g>
			<path d="M312.2,342c-0.7,0-1.2-0.6-1.2-1.2v-37c0-0.7,0.6-1.2,1.2-1.2h33.3c0.7,0,1.2,0.6,1.2,1.2c0,0.7-0.6,1.2-1.2,1.2h-32.1
				v35.8C313.4,341.5,312.9,342,312.2,342z"/>
		</g>
		<g>
			<path d="M368.1,305.1h-12.6c-0.7,0-1.2-0.6-1.2-1.2c0-0.7,0.6-1.2,1.2-1.2h12.6c0.7,0,1.2,0.6,1.2,1.2
				C369.3,304.5,368.8,305.1,368.1,305.1z"/>
		</g>
	</g>
	<g>
		<g>
			<path fill="#A8CAFF" d="M818.3,226.3c1.5-5.9,2.3-12.1,2.3-18.5c0-40.9-33.1-74-74-74c-33.5,0-61.8,22.3-70.9,52.9
				c-4.7-1.6-9.7-2.4-14.9-2.4c-24,0-43.8,17.8-46.9,40.9c-27.6,2.5-49.3,25.6-49.3,53.9c0,29.9,24.2,54.1,54.1,54.1h187.4
				c29.9,0,59.1-24.2,59.1-54.1C865.2,253.3,843.5,231.7,818.3,226.3z"/>
			<path d="M806.1,334.4H618.7c-30.5,0-55.4-24.8-55.4-55.4c0-28.5,21.2-52,49.4-55c3.7-23.5,24.2-41,48-41c4.8,0,9.5,0.7,14.1,2.1
				c9.8-31,39.1-52.6,71.7-52.6c41.5,0,75.2,33.7,75.2,75.2c0,5.9-0.7,11.8-2.1,17.6c26.7,6.3,46.7,29.2,46.7,53.7
				C866.5,308.5,838.3,334.4,806.1,334.4z M660.8,185.5c-22.9,0-42.6,17.1-45.7,39.9c-0.1,0.6-0.5,1-1.1,1.1
				c-27.4,2.4-48.1,25.1-48.1,52.7c0,29.2,23.7,52.9,52.9,52.9h187.4c30.8,0,57.9-24.7,57.9-52.9c0-23.8-19.8-45.9-46-51.6
				c-0.3-0.1-0.6-0.3-0.8-0.6c-0.2-0.3-0.2-0.6-0.1-1c1.5-5.9,2.3-12,2.3-18.2c0-40.1-32.6-72.7-72.7-72.7c-32,0-60.6,21.4-69.7,52
				c-0.1,0.3-0.3,0.6-0.6,0.7c-0.3,0.2-0.6,0.2-1,0.1C670.6,186.3,665.7,185.5,660.8,185.5z"/>
		</g>
		<g>
			<path d="M633.4,229.1c-0.1,0-0.1,0-0.2,0c-0.7-0.1-1.1-0.7-1.1-1.4c2-14.2,14.2-25,28.6-25c0.7,0,1.2,0.6,1.2,1.2
				c0,0.7-0.6,1.2-1.2,1.2c-13.1,0-24.4,9.8-26.2,22.8C634.5,228.6,634,229.1,633.4,229.1z"/>
		</g>
		<g>
			<path d="M618.7,314.7c-19.6,0-35.6-16-35.6-35.6c0-0.7,0.6-1.2,1.2-1.2c0.7,0,1.2,0.6,1.2,1.2c0,18.3,14.9,33.2,33.2,33.2
				c0.7,0,1.2,0.6,1.2,1.2C619.9,314.1,619.4,314.7,618.7,314.7z"/>
		</g>
		<g>
			<path d="M800.9,209c-0.7,0-1.2-0.6-1.2-1.2c0-29.2-23.8-53-53-53c-0.7,0-1.2-0.6-1.2-1.2c0-0.7,0.6-1.2,1.2-1.2
				c30.6,0,55.5,24.9,55.5,55.5C802.1,208.4,801.6,209,800.9,209z"/>
		</g>
		<g>
			<path fill="#FF9D9A" d="M785.9,278c-0.6-2.5-1.4-5-2.2-7.5h-27c8,12.7,8.9,29.2,0.9,43.1c-11.5,20-37,26.9-57.1,15.4
				c-20-11.5-26.9-37-15.4-57.1c0.3-0.5,0.6-1,0.9-1.5h-27c-0.9,2.6-1.7,5.2-2.3,7.8l-17.9,2.2c-1.2,8.4-1.2,16.8,0.1,25.1l17.9,2.1
				c2.9,12.8,9.7,24.7,19.7,33.9l-7.1,16.6c3.2,2.6,6.7,4.9,10.4,7.1c3.7,2.1,7.5,3.9,11.3,5.4l10.8-14.5c13,4,26.7,3.8,39.2-0.1
				l10.8,14.4c7.8-3.1,15.1-7.3,21.7-12.6l-7.1-16.5c4.8-4.4,8.9-9.6,12.3-15.5c3.4-5.9,5.8-12.2,7.2-18.5l17.9-2.2
				c1.3-8.4,1.2-16.8-0.1-25.1L785.9,278z"/>
			<path d="M691.1,371.8c-0.2,0-0.3,0-0.4-0.1c-4-1.6-7.9-3.4-11.5-5.5c-3.7-2.1-7.2-4.5-10.6-7.2c-0.4-0.3-0.6-0.9-0.4-1.4
				l6.7-15.8c-9.5-9-16.1-20.4-19.2-33.1l-17-2c-0.6-0.1-1-0.5-1.1-1c-1.3-8.4-1.3-17-0.1-25.4c0.1-0.5,0.5-1,1.1-1l17-2.1
				c0.5-2.2,1.2-4.6,2.1-7.1c0.2-0.5,0.6-0.8,1.2-0.8h27c0.4,0,0.9,0.2,1.1,0.6c0.2,0.4,0.2,0.9,0,1.3l-0.4,0.6
				c-0.2,0.3-0.4,0.5-0.5,0.8c-5.4,9.4-6.8,20.3-4,30.8c2.8,10.5,9.6,19.2,19,24.6c6.2,3.5,13.1,5.4,20.2,5.4
				c14.5,0,28-7.8,35.2-20.4c7.5-13,7.2-29.1-0.9-41.8c-0.2-0.4-0.3-0.9,0-1.3c0.2-0.4,0.6-0.6,1.1-0.6h27c0.5,0,1,0.3,1.2,0.8
				c0.9,2.4,1.6,4.7,2.1,6.8l17,2c0.6,0.1,1,0.5,1.1,1c1.3,8.5,1.3,17,0.1,25.4c-0.1,0.5-0.5,1-1.1,1l-17,2.1
				c-1.5,6.3-3.9,12.3-7.1,18c-3.2,5.6-7.3,10.8-11.9,15.2l6.8,15.7c0.2,0.5,0.1,1.1-0.4,1.4c-6.6,5.3-14,9.6-22,12.8
				c-0.5,0.2-1.1,0-1.4-0.4l-10.3-13.7c-12.4,3.7-25.8,3.8-38.3,0.1l-10.2,13.8C691.9,371.6,691.5,371.8,691.1,371.8z M670.9,357.7
				c3,2.3,6.2,4.5,9.5,6.4c3.3,1.9,6.7,3.6,10.3,5l10.2-13.7c0.3-0.4,0.9-0.6,1.4-0.4c12.5,3.8,26,3.8,38.5-0.1c0.5-0.1,1,0,1.4,0.4
				l10.2,13.7c7.1-2.9,13.7-6.7,19.8-11.4l-6.8-15.7c-0.2-0.5-0.1-1,0.3-1.4c4.8-4.4,8.8-9.6,12.1-15.3c3.3-5.7,5.6-11.8,7.1-18.1
				c0.1-0.5,0.5-0.9,1.1-1l16.9-2.1c1-7.6,1-15.2-0.1-22.8l-17-2c-0.5-0.1-0.9-0.4-1.1-1c-0.5-2-1.1-4.2-1.9-6.5h-23.9
				c7.4,13.2,7.4,29.3-0.2,42.5c-7.7,13.3-22,21.6-37.4,21.6c-7.5,0-14.9-2-21.4-5.7c-10-5.7-17.1-15-20.1-26.1
				c-3-11-1.5-22.4,4-32.3h-23.9c-0.8,2.4-1.5,4.6-2,6.8c-0.1,0.5-0.5,0.9-1.1,1l-16.9,2c-1,7.6-1,15.3,0.1,22.8l17,2
				c0.5,0.1,0.9,0.4,1.1,0.9c3,12.9,9.6,24.4,19.3,33.3c0.4,0.4,0.5,0.9,0.3,1.4L670.9,357.7z"/>
		</g>
		<g>
			<path d="M824.4,271.8H618.3c-0.7,0-1.2-0.6-1.2-1.2c0-0.7,0.6-1.2,1.2-1.2h206.1c0.7,0,1.2,0.6,1.2,1.2
				C825.6,271.2,825.1,271.8,824.4,271.8z"/>
		</g>
	</g>
	<g>
		<g>
			<path fill="#A8CAFF" d="M882,477.8c1.1-4.3,1.7-8.9,1.7-13.6c0-30-24.3-54.2-54.2-54.2c-24.6,0-45.3,16.4-52,38.8
				c-3.5-1.1-7.1-1.8-11-1.8c-17.6,0-32.1,13.1-34.4,30c-20.2,1.8-36.1,18.8-36.1,39.5c0,21.9,17.8,39.7,39.7,39.7h137.4
				c21.9,0,43.3-17.8,43.3-39.7C916.5,497.6,900.5,481.8,882,477.8z"/>
			<path d="M873.1,557.4H735.7c-22.6,0-40.9-18.4-40.9-40.9c0-21,15.5-38.3,36.3-40.6c2.8-17.2,17.9-30.1,35.5-30.1
				c3.4,0,6.8,0.5,10.1,1.5c7.3-22.7,28.8-38.5,52.8-38.5c30.6,0,55.5,24.9,55.5,55.5c0,4.3-0.5,8.5-1.4,12.6
				c19.6,4.8,34.2,21.6,34.2,39.6C917.7,538.3,896.9,557.4,873.1,557.4z M766.6,448.2c-16.7,0-30.9,12.4-33.2,28.9
				c-0.1,0.6-0.5,1-1.1,1.1c-19.9,1.8-35,18.2-35,38.3c0,21.2,17.2,38.4,38.4,38.4h137.4c22.4,0,42.1-18,42.1-38.4
				c0-17.3-14.4-33.4-33.4-37.5c-0.3-0.1-0.6-0.3-0.8-0.6c-0.2-0.3-0.2-0.6-0.1-1c1.1-4.3,1.7-8.8,1.7-13.3c0-29.2-23.8-53-53-53
				c-23.3,0-44.2,15.6-50.8,37.9c-0.1,0.3-0.3,0.6-0.6,0.7c-0.3,0.2-0.6,0.2-1,0.1C773.7,448.8,770.2,448.2,766.6,448.2z"/>
		</g>
		<g>
			<path d="M746.5,480.2c-0.1,0-0.1,0-0.2,0c-0.7-0.1-1.1-0.7-1.1-1.4c1.5-10.6,10.6-18.6,21.3-18.6c0.7,0,1.2,0.6,1.2,1.2
				s-0.6,1.2-1.2,1.2c-9.5,0-17.6,7.1-18.8,16.4C747.6,479.8,747.1,480.2,746.5,480.2z"/>
		</g>
		<g>
			<path d="M735.7,543c-14.6,0-26.4-11.9-26.4-26.5c0-0.7,0.6-1.2,1.2-1.2s1.2,0.6,1.2,1.2c0,13.2,10.8,24,24,24
				c0.7,0,1.2,0.6,1.2,1.2C737,542.4,736.4,543,735.7,543z"/>
		</g>
		<g>
			<path d="M869.3,465.5c-0.7,0-1.2-0.6-1.2-1.2c0-21.2-17.3-38.5-38.5-38.5c-0.7,0-1.2-0.6-1.2-1.2s0.6-1.2,1.2-1.2
				c22.6,0,41,18.4,41,41C870.5,464.9,870,465.5,869.3,465.5z"/>
		</g>
	</g>
	<g>
		<g>
			<path fill="#A8CAFF" d="M1229.2,706.4c1.1-4.2,1.7-8.6,1.7-13.2c0-29.1-23.6-52.7-52.7-52.7c-23.9,0-44.1,15.9-50.5,37.7
				c-3.4-1.1-6.9-1.7-10.7-1.7c-17.1,0-31.2,12.7-33.4,29.2c-19.7,1.8-35.1,18.3-35.1,38.4c0,21.3,17.3,38.6,38.6,38.6h133.6
				c21.3,0,42.1-17.3,42.1-38.6C1262.7,725.6,1247.2,710.3,1229.2,706.4z"/>
			<path d="M1220.6,783.8H1087c-21.9,0-39.8-17.9-39.8-39.8c0-20.4,15.1-37.3,35.3-39.5c2.8-16.8,17.4-29.3,34.5-29.3
				c3.3,0,6.6,0.5,9.8,1.4c7.1-22.1,28.1-37.4,51.3-37.4c29.8,0,54,24.2,54,54c0,4.1-0.5,8.3-1.4,12.3c19,4.6,33.2,21,33.2,38.5
				C1263.9,765.2,1243.7,783.8,1220.6,783.8z M1117,677.7c-16.2,0-30,12.1-32.2,28.1c-0.1,0.6-0.5,1-1.1,1.1
				c-19.4,1.7-34,17.7-34,37.2c0,20.6,16.7,37.3,37.3,37.3h133.6c21.8,0,40.9-17.4,40.9-37.3c0-16.8-14-32.4-32.5-36.4
				c-0.3-0.1-0.6-0.3-0.8-0.6c-0.2-0.3-0.2-0.6-0.1-1c1.1-4.2,1.6-8.5,1.6-12.9c0-28.4-23.1-51.5-51.5-51.5
				c-22.6,0-42.9,15.1-49.3,36.8c-0.1,0.3-0.3,0.6-0.6,0.7c-0.3,0.2-0.6,0.2-1,0.1C1123.9,678.2,1120.5,677.7,1117,677.7z"/>
		</g>
		<g>
			<path d="M1097.5,708.8c-0.1,0-0.1,0-0.2,0c-0.7-0.1-1.1-0.7-1.1-1.4c1.4-10.3,10.3-18.1,20.7-18.1c0.7,0,1.2,0.6,1.2,1.2
				c0,0.7-0.6,1.2-1.2,1.2c-9.2,0-17,6.9-18.3,16C1098.6,708.3,1098.1,708.8,1097.5,708.8z"/>
		</g>
		<g>
			<path d="M1087,769.8c-14.2,0-25.7-11.5-25.7-25.7c0-0.7,0.6-1.2,1.2-1.2s1.2,0.6,1.2,1.2c0,12.8,10.4,23.3,23.3,23.3
				c0.7,0,1.2,0.6,1.2,1.2C1088.2,769.2,1087.7,769.8,1087,769.8z"/>
		</g>
		<g>
			<path d="M1216.8,694.5c-0.7,0-1.2-0.6-1.2-1.2c0-20.6-16.8-37.4-37.4-37.4c-0.7,0-1.2-0.6-1.2-1.2s0.6-1.2,1.2-1.2
				c22,0,39.9,17.9,39.9,39.9C1218.1,693.9,1217.5,694.5,1216.8,694.5z"/>
		</g>
	</g>
	<g>
		<g>
			<path fill="#FF9D9A" d="M936.8,723.3h39.3c0-23.3-9.6-44.3-25.1-59.3c-7.8,5.4-16.4,9.8-25.6,12.8
				C932.7,690.7,936.8,706.5,936.8,723.3z"/>
			<path d="M976.2,724.5h-39.3c-0.7,0-1.2-0.6-1.2-1.2c0-16.2-3.8-31.6-11.2-45.9c-0.2-0.3-0.2-0.7-0.1-1c0.1-0.3,0.4-0.6,0.8-0.7
				c9-3,17.5-7.3,25.3-12.7c0.5-0.3,1.1-0.3,1.6,0.1c16.5,16,25.5,37.3,25.5,60.2C977.4,724,976.8,724.5,976.2,724.5z M938.1,722
				h36.9c-0.3-21.4-8.8-41.4-24-56.5c-7.3,5-15.3,9-23.7,11.9C934.2,691.4,937.9,706.4,938.1,722z"/>
		</g>
		<g>
			<path fill="#FF9D9A" d="M925.5,769.8c9.2,3.1,17.8,7.4,25.6,12.8c15.5-15,25.1-36,25.1-59.3h-39.3
				C936.8,740.1,932.7,755.9,925.5,769.8z"/>
			<path d="M951,783.8c-0.2,0-0.5-0.1-0.7-0.2c-7.8-5.4-16.3-9.7-25.2-12.7c-0.3-0.1-0.6-0.4-0.8-0.7c-0.1-0.3-0.1-0.7,0-1
				c7.5-14.3,11.2-29.8,11.2-45.9c0-0.7,0.6-1.2,1.2-1.2h39.3c0.7,0,1.2,0.6,1.2,1.2c0,22.9-9.1,44.3-25.5,60.2
				C951.6,783.7,951.3,783.8,951,783.8z M927.2,769.1c8.4,2.9,16.4,6.9,23.7,11.9c15.2-15.1,23.7-35.1,24-56.5h-36.9
				C937.9,740.2,934.2,755.1,927.2,769.1z"/>
		</g>
		<g>
			<path fill="#FF9D9A" d="M925.5,676.8c9.2-3.1,17.8-7.4,25.6-12.8c-14.8-14.4-35-23.2-57.2-23.3C907,650,917.9,662.3,925.5,676.8z
				"/>
			<path d="M925.5,678c-0.4,0-0.9-0.2-1.1-0.7c-7.4-14.2-18.2-26.5-31.3-35.7c-0.4-0.3-0.6-0.9-0.5-1.4c0.2-0.5,0.6-0.9,1.2-0.9
				c0,0,0,0,0,0c21.8,0.1,42.4,8.5,58.1,23.6c0.3,0.3,0.4,0.6,0.4,1c0,0.4-0.2,0.7-0.5,0.9c-8,5.5-16.7,9.9-25.9,13
				C925.7,678,925.6,678,925.5,678z M897.7,642c11.7,8.9,21.5,20.3,28.4,33.3c8.1-2.8,15.9-6.7,23-11.5
				C935,650.6,916.9,643,897.7,642z"/>
		</g>
		<g>
			<path fill="#FF9D9A" d="M850.2,723.3h-39.3c0,23.3,9.6,44.3,25.1,59.3c7.8-5.4,16.4-9.7,25.6-12.8
				C854.4,755.9,850.2,740.1,850.2,723.3z"/>
			<path d="M836.1,783.8c-0.3,0-0.6-0.1-0.9-0.3c-16.5-15.9-25.5-37.3-25.5-60.2c0-0.7,0.6-1.2,1.2-1.2h39.3c0.7,0,1.2,0.6,1.2,1.2
				c0,16.2,3.8,31.6,11.2,45.9c0.2,0.3,0.2,0.7,0,1c-0.1,0.3-0.4,0.6-0.8,0.7c-9,3-17.5,7.3-25.2,12.7
				C836.5,783.8,836.3,783.8,836.1,783.8z M812.2,724.5c0.3,21.4,8.8,41.4,24,56.5c7.3-5,15.3-9,23.7-11.9
				c-7-13.9-10.7-28.9-10.9-44.6H812.2z"/>
		</g>
		<g>
			<path fill="#FF9D9A" d="M861.6,676.8c-9.2-3.1-17.8-7.4-25.6-12.8c-15.5,15-25.1,36-25.1,59.3h39.3
				C850.2,706.5,854.4,690.7,861.6,676.8z"/>
			<path d="M850.2,724.5h-39.3c-0.7,0-1.2-0.6-1.2-1.2c0-22.9,9.1-44.2,25.5-60.2c0.4-0.4,1.1-0.5,1.6-0.1
				c7.8,5.4,16.3,9.7,25.2,12.7c0.3,0.1,0.6,0.4,0.8,0.7c0.1,0.3,0.1,0.7-0.1,1c-7.5,14.3-11.2,29.7-11.2,45.9
				C851.5,724,850.9,724.5,850.2,724.5z M812.2,722H849c0.2-15.6,3.8-30.6,10.9-44.6c-8.4-2.9-16.3-6.9-23.7-11.9
				C821,680.7,812.5,700.7,812.2,722z"/>
		</g>
		<g>
			<path fill="#FF9D9A" d="M925.5,676.8c-10,3.3-20.8,5.2-31.9,5.2c-11.2,0-21.9-1.8-31.9-5.2c-7.3,13.9-11.4,29.7-11.4,46.5h43.3
				h43.3C936.8,706.5,932.7,690.7,925.5,676.8z"/>
			<path d="M936.8,724.5h-86.6c-0.7,0-1.2-0.6-1.2-1.2c0-16.6,3.9-32.4,11.5-47.1c0.3-0.5,0.9-0.8,1.5-0.6c20.4,6.8,42.7,6.8,63.1,0
				c0.6-0.2,1.2,0.1,1.5,0.6c7.6,14.7,11.5,30.5,11.5,47.1C938.1,724,937.5,724.5,936.8,724.5z M851.5,722h84.1
				c-0.2-15.4-3.8-30.1-10.8-43.8c-20.3,6.5-42.3,6.5-62.6,0C855.3,692,851.7,706.7,851.5,722z"/>
		</g>
		<g>
			<path fill="#FF9D9A" d="M893.5,723.3h-43.3c0,16.8,4.1,32.6,11.4,46.5c10-3.3,20.8-5.2,31.9-5.2c11.2,0,21.9,1.8,31.9,5.2
				c7.3-13.9,11.4-29.7,11.4-46.5H893.5z"/>
			<path d="M861.6,771c-0.4,0-0.9-0.2-1.1-0.7c-7.6-14.7-11.5-30.5-11.5-47.1c0-0.7,0.6-1.2,1.2-1.2h86.6c0.7,0,1.2,0.6,1.2,1.2
				c0,16.6-3.9,32.4-11.5,47.1c-0.3,0.5-0.9,0.8-1.5,0.6c-20.4-6.8-42.7-6.8-63.1,0C861.9,771,861.7,771,861.6,771z M893.5,763.4
				c10.6,0,21.2,1.7,31.3,4.9c7-13.7,10.6-28.4,10.8-43.8h-84.1c0.2,15.4,3.8,30.1,10.7,43.8C872.4,765,882.9,763.4,893.5,763.4z"/>
		</g>
		<g>
			<path fill="#FF9D9A" d="M893.3,640.7c-22.3,0.1-42.4,8.9-57.3,23.3c7.8,5.4,16.4,9.8,25.6,12.8C869.1,662.3,880,650,893.3,640.7z
				"/>
			<path d="M861.6,678c-0.1,0-0.3,0-0.4-0.1c-9.2-3.1-17.9-7.4-25.9-13c-0.3-0.2-0.5-0.5-0.5-0.9c0-0.4,0.1-0.7,0.4-1
				c15.7-15.2,36.3-23.6,58.1-23.6c0,0,0,0,0,0c0.5,0,1,0.3,1.2,0.9c0.2,0.5,0,1.1-0.5,1.4c-13.1,9.2-23.9,21.5-31.3,35.7
				C862.5,677.8,862.1,678,861.6,678z M838,663.8c7.1,4.8,14.9,8.7,23,11.5c6.9-12.9,16.7-24.4,28.4-33.3
				C870.2,643,852.1,650.6,838,663.8z"/>
		</g>
		<g>
			<path fill="#FF9D9A" d="M893.8,640.7c-0.1-0.1-0.2-0.1-0.2-0.2c-0.1,0.1-0.2,0.1-0.2,0.2c0.1,0,0.2,0,0.2,0
				C893.6,640.7,893.7,640.7,893.8,640.7z"/>
			<path d="M893.8,641.9c0,0-0.2,0-0.2,0l-0.1-0.8l-0.1,0.2l-0.1,0.7c-0.5,0-1-0.3-1.2-0.9c-0.2-0.5,0-1.1,0.4-1.4l0.2-0.2
				c0.4-0.3,1-0.3,1.4,0c0.4,0.3,0.8,1,0.6,1.5C894.7,641.5,894.3,641.9,893.8,641.9z"/>
		</g>
		<g>
			<path fill="#FF9D9A" d="M893.8,640.7c-0.1,0-0.2,0-0.2,0c-0.1,0-0.2,0-0.2,0c-13.3,9.3-24.2,21.7-31.7,36.1
				c10,3.3,20.8,5.2,31.9,5.2c11.2,0,21.9-1.8,31.9-5.2C917.9,662.3,907,650,893.8,640.7z"/>
			<path d="M893.5,683.2c-11,0-21.9-1.8-32.3-5.2c-0.3-0.1-0.6-0.4-0.8-0.7c-0.1-0.3-0.1-0.7,0-1c7.6-14.5,18.6-27.2,32.1-36.6
				c0.2-0.1,0.5-0.2,0.7-0.2c0,0,0.4,0,0.4,0c0.2,0,0.6,0.1,0.8,0.2c13.4,9.4,24.5,22.1,32.1,36.6c0.2,0.3,0.2,0.7,0,1
				c-0.1,0.3-0.4,0.6-0.8,0.7C915.4,681.4,904.5,683.2,893.5,683.2z M863.4,676.1c19.5,6.2,40.7,6.2,60.3,0
				c-7.3-13.4-17.6-25.2-30.1-34.1C881,650.9,870.6,662.6,863.4,676.1z"/>
		</g>
		<g>
			<path fill="#FF9D9A" d="M893.8,805.9c22.3-0.1,42.4-8.9,57.3-23.3c-7.8-5.4-16.4-9.7-25.6-12.8
				C917.9,784.2,907,796.6,893.8,805.9z"/>
			<path d="M893.8,807.1c-0.5,0-1-0.3-1.2-0.9c-0.2-0.5,0-1.1,0.5-1.4c13.1-9.2,23.9-21.5,31.3-35.7c0.3-0.5,0.9-0.8,1.5-0.6
				c9.2,3.1,17.9,7.4,25.9,13c0.3,0.2,0.5,0.5,0.5,0.9c0,0.4-0.1,0.7-0.4,1C936.2,798.7,915.6,807.1,893.8,807.1
				C893.8,807.1,893.8,807.1,893.8,807.1z M926.1,771.3c-6.9,13-16.7,24.4-28.4,33.3c19.2-1,37.3-8.6,51.4-21.8
				C941.9,778,934.2,774.1,926.1,771.3z"/>
		</g>
		<g>
			<path fill="#FF9D9A" d="M861.6,769.8c-9.2,3.1-17.8,7.4-25.6,12.8c14.8,14.4,35,23.2,57.3,23.3
				C880,796.6,869.1,784.2,861.6,769.8z"/>
			<path d="M893.3,807.1C893.3,807.1,893.3,807.1,893.3,807.1c-21.8-0.1-42.4-8.5-58.1-23.6c-0.3-0.3-0.4-0.6-0.4-1
				c0-0.4,0.2-0.7,0.5-0.9c7.9-5.5,16.7-9.9,25.9-13c0.6-0.2,1.2,0.1,1.5,0.6c7.4,14.2,18.2,26.5,31.3,35.7c0.4,0.3,0.6,0.9,0.5,1.4
				C894.3,806.8,893.8,807.1,893.3,807.1z M838,782.8c14.1,13.2,32.2,20.8,51.4,21.8c-11.7-8.9-21.4-20.3-28.4-33.3
				C852.9,774.1,845.1,778,838,782.8z"/>
		</g>
		<g>
			<path fill="#FF9D9A" d="M893.3,805.9c0.1,0.1,0.2,0.1,0.2,0.2c0.1-0.1,0.2-0.1,0.2-0.2c-0.1,0-0.1,0-0.2,0
				C893.5,805.9,893.4,805.9,893.3,805.9z"/>
			<path d="M893.5,807.3c-0.2,0-0.5-0.1-0.7-0.2c0,0-0.2-0.1-0.2-0.1c-0.4-0.3-0.6-0.9-0.5-1.4s0.6-0.9,1.1-0.9l0.2,0.9l0.1-0.1
				l0.1-0.9c0.6,0.1,1.1,0.3,1.3,0.8c0.2,0.5,0,1.1-0.4,1.4c0,0-0.3,0.2-0.3,0.2C894,807.2,893.8,807.3,893.5,807.3z"/>
		</g>
		<g>
			<path fill="#FF9D9A" d="M893.5,764.6c-11.2,0-21.9,1.8-31.9,5.2c7.5,14.4,18.4,26.8,31.7,36.1c0.1,0,0.2,0,0.2,0
				c0.1,0,0.2,0,0.2,0c13.3-9.3,24.2-21.7,31.7-36.1C915.4,766.4,904.7,764.6,893.5,764.6z"/>
			<path d="M893.5,807.1c0,0-0.1,0-0.2,0c-0.2,0-0.6-0.1-0.8-0.2c-13.4-9.4-24.5-22-32.1-36.6c-0.2-0.3-0.2-0.7,0-1
				c0.1-0.3,0.4-0.6,0.8-0.7c20.9-7,43.7-7,64.6,0c0.3,0.1,0.6,0.4,0.8,0.7c0.1,0.3,0.1,0.7,0,1c-7.6,14.5-18.7,27.2-32.1,36.6
				c-0.2,0.1-0.5,0.2-0.7,0.2L893.5,807.1z M863.4,770.5c7.3,13.5,17.7,25.2,30.1,34c12.5-8.9,22.9-20.6,30.1-34
				C904.1,764.3,882.9,764.3,863.4,770.5z"/>
		</g>
	</g>
	<g>
		<path d="M1276.2,859.2H765.9c-0.7,0-1.2-0.6-1.2-1.2s0.6-1.2,1.2-1.2h510.3c0.7,0,1.2,0.6,1.2,1.2S1276.9,859.2,1276.2,859.2z"/>
	</g>
	<g>
		<path d="M893.2,859.2c-0.7,0-1.2-0.6-1.2-1.2v-52.1c0-0.7,0.6-1.2,1.2-1.2s1.2,0.6,1.2,1.2v52.1
			C894.5,858.6,893.9,859.2,893.2,859.2z"/>
	</g>
	<g>
		<circle fill="#FFFFFF" cx="893.2" cy="857.9" r="16.2"/>
		<path d="M893.2,875.4c-9.6,0-17.5-7.8-17.5-17.5s7.8-17.5,17.5-17.5s17.5,7.8,17.5,17.5S902.9,875.4,893.2,875.4z M893.2,842.9
			c-8.3,0-15,6.7-15,15c0,8.3,6.7,15,15,15c8.3,0,15-6.7,15-15C908.3,849.7,901.5,842.9,893.2,842.9z"/>
	</g>
	<g>
		<path d="M1161.9,859.2c-0.7,0-1.2-0.6-1.2-1.2v-75.4c0-0.7,0.6-1.2,1.2-1.2c0.7,0,1.2,0.6,1.2,1.2v75.4
			C1163.2,858.6,1162.6,859.2,1161.9,859.2z"/>
	</g>
	<g>
		<circle fill="#FFFFFF" cx="1161.9" cy="857.9" r="16.2"/>
		<path d="M1161.9,875.4c-9.6,0-17.5-7.8-17.5-17.5s7.8-17.5,17.5-17.5c9.6,0,17.5,7.8,17.5,17.5S1171.6,875.4,1161.9,875.4z
			 M1161.9,842.9c-8.3,0-15,6.7-15,15c0,8.3,6.7,15,15,15c8.3,0,15-6.7,15-15C1176.9,849.7,1170.2,842.9,1161.9,842.9z"/>
	</g>
	<g>
		<g>
			<path fill="#D1D3D4" d="M984.3,543.9c-13.1,2.3-28.6,3.7-45.1,3.7s-32-1.3-45.1-3.7c-24.9-4.4-41.5-12.4-41.5-21.6v43.1
				c0,13.9,38.8,25.2,86.6,25.2s86.6-11.3,86.6-25.2v-43.1C1025.8,531.5,1009.2,539.5,984.3,543.9z"/>
			<path d="M939.2,591.9c-49.3,0-87.8-11.6-87.8-26.5v-43.1c0-0.7,0.6-1.2,1.2-1.2s1.2,0.6,1.2,1.2c0,8.1,15.5,15.9,40.5,20.3
				c13.5,2.4,29,3.7,44.9,3.7s31.4-1.3,44.9-3.7c25-4.5,40.5-12.2,40.5-20.3c0-0.7,0.6-1.2,1.2-1.2s1.2,0.6,1.2,1.2v43.1
				C1027,580.3,988.4,591.9,939.2,591.9z M853.8,528.7v36.7c0,13,39.1,24,85.4,24c46.3,0,85.4-11,85.4-24v-36.7
				c-5.4,6.9-19.6,12.7-40,16.4c-13.6,2.4-29.3,3.7-45.3,3.7s-31.7-1.3-45.3-3.7C873.4,541.5,859.2,535.6,853.8,528.7z"/>
		</g>
		<g>
			<path fill="#B3B4B5" d="M939.2,497.1c-47.8,0-86.6,11.3-86.6,25.2c0,9.1,16.6,17.1,41.5,21.6c13.1,2.3,28.6,3.7,45.1,3.7
				s32-1.3,45.1-3.7c24.9-4.4,41.5-12.4,41.5-21.6C1025.8,508.4,987,497.1,939.2,497.1z"/>
			<path d="M939.2,548.8c-16,0-31.7-1.3-45.3-3.7c-26.6-4.7-42.5-13.3-42.5-22.8c0-14.8,38.6-26.5,87.8-26.5
				c49.3,0,87.8,11.6,87.8,26.5c0,9.5-15.9,18-42.5,22.8C970.9,547.6,955.2,548.8,939.2,548.8z M939.2,498.3
				c-46.3,0-85.4,11-85.4,24c0,8.1,15.5,15.9,40.5,20.3c13.5,2.4,29,3.7,44.9,3.7s31.4-1.3,44.9-3.7c25-4.5,40.5-12.2,40.5-20.3
				C1024.5,509.3,985.5,498.3,939.2,498.3z"/>
		</g>
		<g>
			<path fill="#D1D3D4" d="M984.3,479c-13.1,2.3-28.6,3.7-45.1,3.7s-32-1.4-45.1-3.7c-24.9-4.4-41.5-12.4-41.5-21.5v43.1
				c0,13.9,38.8,25.2,86.6,25.2s86.6-11.3,86.6-25.2v-43.1C1025.8,466.6,1009.2,474.5,984.3,479z"/>
			<path d="M939.2,527c-49.3,0-87.8-11.6-87.8-26.5v-43.1c0-0.7,0.6-1.2,1.2-1.2s1.2,0.6,1.2,1.2c0,8.1,15.5,15.9,40.5,20.3
				c13.5,2.4,29,3.7,44.9,3.7c15.9,0,31.4-1.3,44.9-3.7c25-4.5,40.5-12.2,40.5-20.3c0-0.7,0.6-1.2,1.2-1.2s1.2,0.6,1.2,1.2v43.1
				C1027,515.4,988.4,527,939.2,527z M853.8,463.8v36.7c0,13,39.1,24,85.4,24c46.3,0,85.4-11,85.4-24v-36.7
				c-5.4,6.9-19.6,12.7-40,16.4c-13.6,2.4-29.3,3.7-45.3,3.7s-31.7-1.3-45.3-3.7C873.4,476.5,859.2,470.7,853.8,463.8z"/>
		</g>
		<g>
			<path fill="#B3B4B5" d="M939.2,432.2c-47.8,0-86.6,11.3-86.6,25.2c0,9.1,16.6,17.1,41.5,21.5c13.1,2.3,28.6,3.7,45.1,3.7
				s32-1.4,45.1-3.7c24.9-4.4,41.5-12.4,41.5-21.5C1025.8,443.5,987,432.2,939.2,432.2z"/>
			<path d="M939.2,483.9c-16,0-31.7-1.3-45.3-3.7c-26.6-4.7-42.5-13.3-42.5-22.8c0-14.8,38.6-26.5,87.8-26.5
				c49.3,0,87.8,11.6,87.8,26.5c0,9.5-15.9,18-42.5,22.8C970.9,482.6,955.2,483.9,939.2,483.9z M939.2,433.4
				c-46.3,0-85.4,11-85.4,24c0,8.1,15.5,15.9,40.5,20.3c13.5,2.4,29,3.7,44.9,3.7c15.9,0,31.4-1.3,44.9-3.7
				c25-4.5,40.5-12.2,40.5-20.3C1024.5,444.4,985.5,433.4,939.2,433.4z"/>
		</g>
		<g>
			<path fill="#D1D3D4" d="M984.3,414.1c-13.1,2.3-28.6,3.7-45.1,3.7s-32-1.3-45.1-3.7c-24.9-4.4-41.5-12.4-41.5-21.6v43.1
				c0,13.9,38.8,25.2,86.6,25.2s86.6-11.3,86.6-25.2v-43.1C1025.8,401.6,1009.2,409.6,984.3,414.1z"/>
			<path d="M939.2,462.1c-49.3,0-87.8-11.6-87.8-26.5v-43.1c0-0.7,0.6-1.2,1.2-1.2s1.2,0.6,1.2,1.2c0,8.1,15.5,15.9,40.5,20.3
				c13.5,2.4,29,3.7,44.9,3.7s31.4-1.3,44.9-3.7c25-4.5,40.5-12.2,40.5-20.3c0-0.7,0.6-1.2,1.2-1.2s1.2,0.6,1.2,1.2v43.1
				C1027,450.5,988.4,462.1,939.2,462.1z M853.8,398.9v36.7c0,13,39.1,24,85.4,24c46.3,0,85.4-11,85.4-24v-36.7
				c-5.4,6.9-19.6,12.7-40,16.4c-13.6,2.4-29.3,3.7-45.3,3.7c-16,0-31.7-1.3-45.3-3.7C873.4,411.6,859.2,405.7,853.8,398.9z"/>
		</g>
		<g>
			<path fill="#B3B4B5" d="M939.2,367.3c-47.8,0-86.6,11.3-86.6,25.2c0,9.1,16.6,17.1,41.5,21.6c13.1,2.3,28.6,3.7,45.1,3.7
				s32-1.3,45.1-3.7c24.9-4.4,41.5-12.4,41.5-21.6C1025.8,378.6,987,367.3,939.2,367.3z"/>
			<path d="M939.2,419c-16,0-31.7-1.3-45.3-3.7c-26.6-4.7-42.5-13.3-42.5-22.8c0-14.8,38.6-26.5,87.8-26.5
				c49.3,0,87.8,11.6,87.8,26.5c0,9.5-15.9,18-42.5,22.8C970.9,417.7,955.2,419,939.2,419z M939.2,368.5c-46.3,0-85.4,11-85.4,24
				c0,8.1,15.5,15.9,40.5,20.3c13.5,2.4,29,3.7,44.9,3.7s31.4-1.3,44.9-3.7c25-4.5,40.5-12.2,40.5-20.3
				C1024.5,379.5,985.5,368.5,939.2,368.5z"/>
		</g>
		<g>
			<g>
				<path fill="none" d="M982.9,406.4c-13.1,2.3-28.2,3.6-43.7,3.6"/>
			</g>
			<g>
				<path fill="none" d="M939.2,375c21.7,0,42.1,2.4,57.6,6.7"/>
			</g>
			<g>
				<path d="M939.2,411.2c-0.7,0-1.2-0.6-1.2-1.2s0.6-1.2,1.2-1.2c15.4,0,30.5-1.2,43.5-3.6c0.7-0.1,1.3,0.3,1.4,1
					c0.1,0.7-0.3,1.3-1,1.4C970,410,954.8,411.2,939.2,411.2z"/>
			</g>
			<g>
				<path d="M996.8,382.9c-0.1,0-0.2,0-0.3,0c-15.4-4.3-35.8-6.6-57.3-6.6c-0.7,0-1.2-0.6-1.2-1.2c0-0.7,0.6-1.2,1.2-1.2
					c21.8,0,42.3,2.4,58,6.7c0.7,0.2,1,0.9,0.9,1.5C997.9,382.6,997.4,382.9,996.8,382.9z"/>
			</g>
		</g>
	</g>
	<g>
		<g>
			<g>
				<g>
					<path d="M1214.1,277.4h-7.4c-0.7,0-1.2-0.6-1.2-1.2s0.6-1.2,1.2-1.2h6.2v-6.2c0-0.7,0.6-1.2,1.2-1.2c0.7,0,1.2,0.6,1.2,1.2v7.4
						C1215.4,276.8,1214.8,277.4,1214.1,277.4z"/>
				</g>
			</g>
			<g>
				<g>
					<path d="M1192.4,277.4h-14.3c-0.7,0-1.2-0.6-1.2-1.2s0.6-1.2,1.2-1.2h14.3c0.7,0,1.2,0.6,1.2,1.2S1193.1,277.4,1192.4,277.4z
						 M1163.8,277.4h-14.3c-0.7,0-1.2-0.6-1.2-1.2s0.6-1.2,1.2-1.2h14.3c0.7,0,1.2,0.6,1.2,1.2S1164.5,277.4,1163.8,277.4z
						 M1135.2,277.4h-14.3c-0.7,0-1.2-0.6-1.2-1.2s0.6-1.2,1.2-1.2h14.3c0.7,0,1.2,0.6,1.2,1.2S1135.9,277.4,1135.2,277.4z
						 M1106.6,277.4h-14.3c-0.7,0-1.2-0.6-1.2-1.2s0.6-1.2,1.2-1.2h14.3c0.7,0,1.2,0.6,1.2,1.2S1107.2,277.4,1106.6,277.4z
						 M1077.9,277.4h-14.3c-0.7,0-1.2-0.6-1.2-1.2s0.6-1.2,1.2-1.2h14.3c0.7,0,1.2,0.6,1.2,1.2S1078.6,277.4,1077.9,277.4z
						 M1049.3,277.4H1035c-0.7,0-1.2-0.6-1.2-1.2s0.6-1.2,1.2-1.2h14.3c0.7,0,1.2,0.6,1.2,1.2S1050,277.4,1049.3,277.4z"/>
				</g>
			</g>
			<g>
				<g>
					<path d="M1020.7,277.4h-7.4c-0.7,0-1.2-0.6-1.2-1.2v-7.4c0-0.7,0.6-1.2,1.2-1.2c0.7,0,1.2,0.6,1.2,1.2v6.2h6.2
						c0.7,0,1.2,0.6,1.2,1.2S1021.4,277.4,1020.7,277.4z"/>
				</g>
			</g>
			<g>
				<g>
					<path d="M1013.3,255.6c-0.7,0-1.2-0.6-1.2-1.2V240c0-0.7,0.6-1.2,1.2-1.2c0.7,0,1.2,0.6,1.2,1.2v14.4
						C1014.5,255.1,1014,255.6,1013.3,255.6z M1013.3,226.8c-0.7,0-1.2-0.6-1.2-1.2v-14.4c0-0.7,0.6-1.2,1.2-1.2
						c0.7,0,1.2,0.6,1.2,1.2v14.4C1014.5,226.3,1014,226.8,1013.3,226.8z M1013.3,198.1c-0.7,0-1.2-0.6-1.2-1.2v-14.4
						c0-0.7,0.6-1.2,1.2-1.2c0.7,0,1.2,0.6,1.2,1.2v14.4C1014.5,197.5,1014,198.1,1013.3,198.1z M1013.3,169.3
						c-0.7,0-1.2-0.6-1.2-1.2v-14.4c0-0.7,0.6-1.2,1.2-1.2c0.7,0,1.2,0.6,1.2,1.2v14.4C1014.5,168.7,1014,169.3,1013.3,169.3z"/>
				</g>
			</g>
			<g>
				<g>
					<path d="M1013.3,140.5c-0.7,0-1.2-0.6-1.2-1.2v-7.4c0-0.7,0.6-1.2,1.2-1.2h7.4c0.7,0,1.2,0.6,1.2,1.2c0,0.7-0.6,1.2-1.2,1.2
						h-6.2v6.2C1014.5,140,1014,140.5,1013.3,140.5z"/>
				</g>
			</g>
			<g>
				<g>
					<path d="M1214.1,254.6c-0.7,0-1.2-0.6-1.2-1.2V238c0-0.7,0.6-1.2,1.2-1.2c0.7,0,1.2,0.6,1.2,1.2v15.4
						C1215.4,254,1214.8,254.6,1214.1,254.6z M1214.1,223.8c-0.7,0-1.2-0.6-1.2-1.2v-15.4c0-0.7,0.6-1.2,1.2-1.2
						c0.7,0,1.2,0.6,1.2,1.2v15.4C1215.4,223.2,1214.8,223.8,1214.1,223.8z M1209.7,194.2c-0.4,0-0.8-0.2-1.1-0.6l-7.9-13.2
						c-0.3-0.6-0.2-1.3,0.4-1.7c0.6-0.3,1.3-0.2,1.7,0.4l7.9,13.2c0.3,0.6,0.2,1.3-0.4,1.7C1210.1,194.2,1209.9,194.2,1209.7,194.2z
						 M1194,167.7c-0.4,0-0.8-0.2-1.1-0.6l-7.9-13.2c-0.3-0.6-0.2-1.3,0.4-1.7c0.6-0.3,1.3-0.2,1.7,0.4l7.9,13.2
						c0.3,0.6,0.2,1.3-0.4,1.7C1194.4,167.7,1194.2,167.7,1194,167.7z M1172,148.9c-0.1,0-0.3,0-0.4-0.1l-14.5-5.2
						c-0.6-0.2-1-0.9-0.7-1.6c0.2-0.6,0.9-1,1.6-0.7l14.5,5.2c0.6,0.2,1,0.9,0.7,1.6C1172.9,148.6,1172.5,148.9,1172,148.9z
						 M1143,138.5c-0.1,0-0.3,0-0.4-0.1l-14.5-5.2c-0.6-0.2-1-0.9-0.7-1.6c0.2-0.6,0.9-1,1.6-0.7l14.5,5.2c0.6,0.2,1,0.9,0.7,1.6
						C1143.9,138.2,1143.5,138.5,1143,138.5z M1113.1,133.1h-15.4c-0.7,0-1.2-0.6-1.2-1.2c0-0.7,0.6-1.2,1.2-1.2h15.4
						c0.7,0,1.2,0.6,1.2,1.2C1114.3,132.6,1113.8,133.1,1113.1,133.1z M1082.3,133.1h-15.4c-0.7,0-1.2-0.6-1.2-1.2
						c0-0.7,0.6-1.2,1.2-1.2h15.4c0.7,0,1.2,0.6,1.2,1.2C1083.5,132.6,1083,133.1,1082.3,133.1z M1051.5,133.1h-15.4
						c-0.7,0-1.2-0.6-1.2-1.2c0-0.7,0.6-1.2,1.2-1.2h15.4c0.7,0,1.2,0.6,1.2,1.2C1052.7,132.6,1052.2,133.1,1051.5,133.1z"/>
				</g>
			</g>
		</g>
		<g>
			<g>
				<g>
					<path fill="#A8CAFF" d="M1073.1,166.7c-1.2-4.5-1.8-9.2-1.8-14.1c0-31.2,25.3-56.4,56.4-56.4c25.6,0,47.2,17,54.1,40.3
						c3.6-1.2,7.4-1.9,11.4-1.9c18.3,0,33.4,13.6,35.8,31.2c21.1,1.9,37.6,19.6,37.6,41.1c0,22.8-18.5,41.3-41.3,41.3h-143
						c-22.8,0-45.1-18.5-45.1-41.3C1037.3,187.3,1053.9,170.8,1073.1,166.7z"/>
				</g>
				<g>
					<path d="M1225.4,249.5h-143c-24.7,0-46.3-19.9-46.3-42.5c0-18.8,15.2-36.3,35.6-41.2c-1-4.3-1.5-8.7-1.5-13.2
						c0-31.8,25.9-57.7,57.7-57.7c24.9,0,47.3,16.4,54.9,40c3.5-1,7-1.5,10.6-1.5c18.3,0,33.9,13.4,36.9,31.3
						c21.6,2.4,37.7,20.4,37.7,42.2C1267.9,230.4,1248.8,249.5,1225.4,249.5z M1127.8,97.4c-30.4,0-55.2,24.8-55.2,55.2
						c0,4.7,0.6,9.3,1.7,13.8c0.1,0.3,0,0.7-0.1,1c-0.2,0.3-0.5,0.5-0.8,0.6c-19.9,4.3-34.8,21.1-34.8,39.1
						c0,21.3,20.5,40.1,43.9,40.1h143c22.1,0,40.1-18,40.1-40.1c0-20.9-15.7-38-36.5-39.9c-0.6-0.1-1-0.5-1.1-1.1
						c-2.4-17.2-17.2-30.2-34.6-30.2c-3.7,0-7.4,0.6-11,1.8c-0.3,0.1-0.7,0.1-1-0.1c-0.3-0.2-0.5-0.4-0.6-0.7
						C1173.8,113.6,1152,97.4,1127.8,97.4z"/>
				</g>
			</g>
			<g>
				<g>
					<path d="M1214.1,169.1c-0.6,0-1.1-0.4-1.2-1.1c-1.3-9.8-9.8-17.2-19.7-17.2c-0.7,0-1.2-0.6-1.2-1.2s0.5-1.2,1.2-1.2
						c11.1,0,20.6,8.3,22.1,19.3c0.1,0.7-0.4,1.3-1.1,1.4C1214.3,169.1,1214.2,169.1,1214.1,169.1z"/>
				</g>
			</g>
			<g>
				<g>
					<path d="M1225.4,234.4c-0.7,0-1.2-0.6-1.2-1.2s0.5-1.2,1.2-1.2c13.8,0,25-11.2,25-25c0-0.7,0.6-1.2,1.2-1.2
						c0.7,0,1.2,0.6,1.2,1.2C1252.8,222.1,1240.5,234.4,1225.4,234.4z"/>
				</g>
			</g>
			<g>
				<g>
					<path d="M1086.4,153.8c-0.7,0-1.2-0.6-1.2-1.2c0-23.5,19.1-42.6,42.6-42.6c0.7,0,1.2,0.6,1.2,1.2c0,0.7-0.6,1.2-1.2,1.2
						c-22.1,0-40.2,18-40.2,40.2C1087.6,153.3,1087.1,153.8,1086.4,153.8z"/>
				</g>
			</g>
		</g>
		<g>
			<g>
				<path fill="#D1D3D4" d="M1167.8,300.2v-124c0-8.9-7.2-16.2-16.2-16.2H978c-8.9,0-16.2,7.2-16.2,16.2v124H1167.8z"/>
			</g>
			<g>
				<path d="M1167.8,301.4h-206c-0.7,0-1.2-0.6-1.2-1.2v-124c0-9.6,7.8-17.4,17.4-17.4h173.7c9.6,0,17.4,7.8,17.4,17.4v124
					C1169,300.9,1168.5,301.4,1167.8,301.4z M963,299h203.5V176.2c0-8.2-6.7-14.9-14.9-14.9H978c-8.2,0-14.9,6.7-14.9,14.9V299z"/>
			</g>
		</g>
		<g>
			<g>
				<path fill="#FFFFFF" d="M973.9,300.2v-124c0-2.2,1.8-4,4-4h173.7c2.2,0,4,1.8,4,4v124H973.9z"/>
			</g>
			<g>
				<path d="M1155.7,301.4H973.9c-0.7,0-1.2-0.6-1.2-1.2v-124c0-2.9,2.4-5.3,5.3-5.3h173.7c2.9,0,5.3,2.4,5.3,5.3v124
					C1156.9,300.9,1156.3,301.4,1155.7,301.4z M975.1,299h179.3V176.2c0-1.5-1.3-2.8-2.8-2.8H978c-1.5,0-2.8,1.3-2.8,2.8V299z"/>
			</g>
		</g>
		<g>
			<g>
				<path fill="#FFFFFF" d="M939.2,300.2v4.5c0,8.9,7.2,16.2,16.2,16.2h218.9c8.9,0,16.2-7.2,16.2-16.2v-4.5H939.2z"/>
			</g>
			<g>
				<path d="M1174.2,322.1H955.3c-9.6,0-17.4-7.8-17.4-17.4v-4.5c0-0.7,0.6-1.2,1.2-1.2h251.2c0.7,0,1.2,0.6,1.2,1.2v4.5
					C1191.6,314.3,1183.8,322.1,1174.2,322.1z M940.4,301.4v3.3c0,8.2,6.7,14.9,14.9,14.9h218.9c8.2,0,14.9-6.7,14.9-14.9v-3.3
					H940.4z"/>
			</g>
		</g>
		<g>
			<g>
				<rect x="1037.3" y="300.2" fill="#D1D3D4" width="55" height="7.2"/>
			</g>
			<g>
				<path d="M1092.3,308.6h-55c-0.7,0-1.2-0.6-1.2-1.2v-7.2c0-0.7,0.6-1.2,1.2-1.2h55c0.7,0,1.2,0.6,1.2,1.2v7.2
					C1093.5,308.1,1093,308.6,1092.3,308.6z M1038.5,306.2h52.5v-4.7h-52.5V306.2z"/>
			</g>
		</g>
	</g>
	<g>
		<rect x="1050.1" y="193.3" fill="#F4FFA0" width="29.3" height="29.3"/>
		<path d="M1079.4,223.9h-29.3c-0.7,0-1.2-0.6-1.2-1.2v-29.3c0-0.7,0.6-1.2,1.2-1.2h29.3c0.7,0,1.2,0.6,1.2,1.2v29.3
			C1080.7,223.3,1080.1,223.9,1079.4,223.9z M1051.4,221.4h26.8v-26.8h-26.8V221.4z"/>
	</g>
	<g>
		<rect x="1000.7" y="243.8" fill="#FF9D9A" width="29.3" height="29.3"/>
		<path d="M1030,274.3h-29.3c-0.7,0-1.2-0.6-1.2-1.2v-29.3c0-0.7,0.6-1.2,1.2-1.2h29.3c0.7,0,1.2,0.6,1.2,1.2v29.3
			C1031.2,273.8,1030.7,274.3,1030,274.3z M1001.9,271.8h26.8V245h-26.8V271.8z"/>
	</g>
	<g>
		<rect x="1050.1" y="243.8" fill="#FF9D9A" width="29.3" height="29.3"/>
		<path d="M1079.4,274.3h-29.3c-0.7,0-1.2-0.6-1.2-1.2v-29.3c0-0.7,0.6-1.2,1.2-1.2h29.3c0.7,0,1.2,0.6,1.2,1.2v29.3
			C1080.7,273.8,1080.1,274.3,1079.4,274.3z M1051.4,271.8h26.8V245h-26.8V271.8z"/>
	</g>
	<g>
		<rect x="1099.6" y="243.8" fill="#FF9D9A" width="29.3" height="29.3"/>
		<path d="M1128.9,274.3h-29.3c-0.7,0-1.2-0.6-1.2-1.2v-29.3c0-0.7,0.6-1.2,1.2-1.2h29.3c0.7,0,1.2,0.6,1.2,1.2v29.3
			C1130.1,273.8,1129.6,274.3,1128.9,274.3z M1100.8,271.8h26.8V245h-26.8V271.8z"/>
	</g>
	<g>
		<polyline fill="#FFFFFF" points="1015.3,243.8 1015.3,207.8 1050.1,207.8 		"/>
		<path d="M1015.3,245c-0.7,0-1.2-0.6-1.2-1.2v-36c0-0.7,0.6-1.2,1.2-1.2h34.8c0.7,0,1.2,0.6,1.2,1.2c0,0.7-0.6,1.2-1.2,1.2h-33.6
			v34.8C1016.6,244.5,1016,245,1015.3,245z"/>
	</g>
	<g>
		<polyline fill="#FFFFFF" points="1079.4,207 1114.2,207 1114.2,243.8 		"/>
		<path d="M1114.2,245c-0.7,0-1.2-0.6-1.2-1.2v-35.6h-33.6c-0.7,0-1.2-0.6-1.2-1.2s0.6-1.2,1.2-1.2h34.8c0.7,0,1.2,0.6,1.2,1.2v36.8
			C1115.5,244.5,1114.9,245,1114.2,245z"/>
	</g>
	<g>
		<line fill="#FFFFFF" x1="1064.8" y1="222.6" x2="1064.8" y2="244.6"/>
		<path d="M1064.8,245.9c-0.7,0-1.2-0.6-1.2-1.2v-22c0-0.7,0.6-1.2,1.2-1.2s1.2,0.6,1.2,1.2v22
			C1066,245.3,1065.5,245.9,1064.8,245.9z"/>
	</g>
	<g>
		<g>
			<path fill="#D1D3D4" d="M1259.4,579.3c0,9-7.3,16.3-16.3,16.3h-135c-9,0-16.3-7.3-16.3-16.3V378.6c0-9,7.3-16.3,16.3-16.3h135
				c9,0,16.3,7.3,16.3,16.3V579.3z"/>
			<path d="M1243.1,596.9h-135c-9.7,0-17.5-7.9-17.5-17.5V378.6c0-9.7,7.9-17.5,17.5-17.5h135c9.7,0,17.5,7.9,17.5,17.5v200.7
				C1260.6,589,1252.7,596.9,1243.1,596.9z M1108.1,363.6c-8.3,0-15.1,6.8-15.1,15.1v200.7c0,8.3,6.8,15.1,15.1,15.1h135
				c8.3,0,15.1-6.8,15.1-15.1V378.6c0-8.3-6.8-15.1-15.1-15.1H1108.1z"/>
		</g>
		<g>
			<circle fill="#FFFFFF" cx="1175.6" cy="441.2" r="61.6"/>
			<path d="M1175.6,504c-34.7,0-62.8-28.2-62.8-62.8s28.2-62.8,62.8-62.8c34.7,0,62.8,28.2,62.8,62.8S1210.2,504,1175.6,504z
				 M1175.6,380.8c-33.3,0-60.4,27.1-60.4,60.4c0,33.3,27.1,60.4,60.4,60.4c33.3,0,60.4-27.1,60.4-60.4
				C1235.9,407.9,1208.8,380.8,1175.6,380.8z"/>
		</g>
		<g>
			<circle fill="#FF9D9A" cx="1175.6" cy="441.2" r="29"/>
			<path d="M1175.6,471.4c-16.7,0-30.2-13.6-30.2-30.2s13.6-30.2,30.2-30.2s30.2,13.6,30.2,30.2S1192.2,471.4,1175.6,471.4z
				 M1175.6,413.4c-15.3,0-27.8,12.5-27.8,27.8c0,15.3,12.5,27.8,27.8,27.8s27.8-12.5,27.8-27.8
				C1203.3,425.9,1190.9,413.4,1175.6,413.4z"/>
		</g>
		<g>
			<path fill="#FFFFFF" d="M1204.3,565.1c0.6,7.6,6.3,10.5,12.8,6.5l22-13.6c6.5-4,8.1-12.3,3.7-18.5l-37.2-52.2
				c-4.4-6.2-7.5-5-7,2.5L1204.3,565.1z"/>
			<path d="M1211.5,574.6L1211.5,574.6c-4.7,0-8-3.7-8.4-9.4l-5.7-75.3c-0.3-3.4,0.2-5.7,1.3-6.9c0.6-0.6,1.3-0.9,2.1-0.9
				c1.7,0,3.7,1.5,5.8,4.5l37.2,52.2c2.3,3.3,3.2,7.2,2.4,11c-0.8,3.8-3.1,7.1-6.5,9.2l-22,13.6
				C1215.6,573.9,1213.5,574.6,1211.5,574.6z M1200.7,484.5c-0.1,0-0.2,0-0.3,0.1c-0.5,0.5-0.9,2.1-0.7,5l5.7,75.3
				c0.3,4.4,2.6,7.1,6,7.1c1.5,0,3.2-0.6,4.9-1.6l22-13.6c2.8-1.7,4.7-4.5,5.4-7.6c0.6-3.2-0.1-6.4-2-9.1l-37.2-52.2
				C1202.1,484.6,1200.9,484.5,1200.7,484.5z"/>
		</g>
		<g>
			<path d="M1242.6,386.2c-3.7,0-6.7-3-6.7-6.7s3-6.7,6.7-6.7c3.7,0,6.7,3,6.7,6.7S1246.3,386.2,1242.6,386.2z M1242.6,375.3
				c-2.3,0-4.2,1.9-4.2,4.2c0,2.3,1.9,4.2,4.2,4.2s4.2-1.9,4.2-4.2C1246.8,377.2,1244.9,375.3,1242.6,375.3z"/>
		</g>
		<g>
			<path d="M1108.5,386.2c-3.7,0-6.7-3-6.7-6.7s3-6.7,6.7-6.7c3.7,0,6.7,3,6.7,6.7S1112.2,386.2,1108.5,386.2z M1108.5,375.3
				c-2.3,0-4.2,1.9-4.2,4.2c0,2.3,1.9,4.2,4.2,4.2c2.3,0,4.2-1.9,4.2-4.2C1112.7,377.2,1110.8,375.3,1108.5,375.3z"/>
		</g>
		<g>
			<path d="M1242.6,584.9c-3.7,0-6.7-3-6.7-6.7c0-3.7,3-6.7,6.7-6.7c3.7,0,6.7,3,6.7,6.7C1249.3,581.9,1246.3,584.9,1242.6,584.9z
				 M1242.6,574c-2.3,0-4.2,1.9-4.2,4.2c0,2.3,1.9,4.2,4.2,4.2s4.2-1.9,4.2-4.2C1246.8,575.9,1244.9,574,1242.6,574z"/>
		</g>
		<g>
			<path d="M1108.5,584.9c-3.7,0-6.7-3-6.7-6.7c0-3.7,3-6.7,6.7-6.7c3.7,0,6.7,3,6.7,6.7C1115.2,581.9,1112.2,584.9,1108.5,584.9z
				 M1108.5,574c-2.3,0-4.2,1.9-4.2,4.2c0,2.3,1.9,4.2,4.2,4.2c2.3,0,4.2-1.9,4.2-4.2C1112.7,575.9,1110.8,574,1108.5,574z"/>
		</g>
		<g>
			<rect x="1119.2" y="520.1" fill="#FFFFFF" width="63.9" height="43.8"/>
			<path d="M1183,565.1h-63.9c-0.7,0-1.2-0.6-1.2-1.2v-43.8c0-0.7,0.6-1.2,1.2-1.2h63.9c0.7,0,1.2,0.6,1.2,1.2v43.8
				C1184.3,564.6,1183.7,565.1,1183,565.1z M1120.4,562.7h61.4v-41.4h-61.4V562.7z"/>
		</g>
		<g>
			<path d="M1163.8,552.9h-35.3c-0.7,0-1.2-0.6-1.2-1.2s0.6-1.2,1.2-1.2h35.3c0.7,0,1.2,0.6,1.2,1.2S1164.5,552.9,1163.8,552.9z"/>
		</g>
		<g>
			<path d="M1173.7,543.2h-45.2c-0.7,0-1.2-0.6-1.2-1.2s0.6-1.2,1.2-1.2h45.2c0.7,0,1.2,0.6,1.2,1.2S1174.4,543.2,1173.7,543.2z"/>
		</g>
		<g>
			<path d="M1173.7,533.3h-45.2c-0.7,0-1.2-0.6-1.2-1.2s0.6-1.2,1.2-1.2h45.2c0.7,0,1.2,0.6,1.2,1.2S1174.4,533.3,1173.7,533.3z"/>
		</g>
		<g>
			<path d="M1237.2,543.2c-0.4,0-0.8-0.2-1-0.5l-27.2-39.2c-0.4-0.6-0.3-1.3,0.3-1.7c0.6-0.4,1.3-0.2,1.7,0.3l27.2,39.2
				c0.4,0.6,0.2,1.3-0.3,1.7C1237.7,543.2,1237.4,543.2,1237.2,543.2z"/>
		</g>
		<g>
			<path d="M1224.7,560.6c-3.5,0-6.4-2.9-6.4-6.4s2.9-6.4,6.4-6.4c3.6,0,6.4,2.9,6.4,6.4S1228.3,560.6,1224.7,560.6z M1224.7,550.2
				c-2.2,0-4,1.8-4,4s1.8,4,4,4s4-1.8,4-4S1226.9,550.2,1224.7,550.2z"/>
		</g>
	</g>
</g>
</svg>
